<?xml version="1.0" standalone="no"?><!DOCTYPE svg PUBLIC "-//W3C//DTD SVG 1.1//EN" "http://www.w3.org/Graphics/SVG/1.1/DTD/svg11.dtd">
<svg t="1636812278896" class="icon" viewBox="0 0 1025 1024" version="1.1" xmlns="http://www.w3.org/2000/svg" p-id="1005"
     width="200.1953125" height="200"><defs><style type="text/css"></style></defs><path d="M925.08 0h-824a100.12 100.12 0 0 0-100 100v176.5a39.14 39.14 0 0 0 0 18.26V924a100.12 100.12 0 0 0 100 100h824a100.12 100.12 0 0 0 100-100V100a100.12 100.12 0 0 0-100-100z m-824 80h824a20.26 20.26 0 0 1 20 20v145.62h-864V100a20.26 20.26 0 0 1 20-20z m824 864h-824a20.26 20.26 0 0 1-20-20V325.62h864V924a20.26 20.26 0 0 1-20 20z" fill="#3390FF" p-id="1006"></path><path d="M304.92 806.1a39.84 39.84 0 0 1-28.28-11.72l-141.02-141a40 40 0 0 1 0-56.58l141.02-141.02a40 40 0 0 1 56.58 56.58l-112.74 112.72 112.74 112.74a40 40 0 0 1-28.3 68.28zM714.42 806.1a40 40 0 0 1-28.28-68.28l112.74-112.74-112.74-112.72a40 40 0 0 1 56.58-56.58l141.02 141.02a40 40 0 0 1 0 56.58l-141.02 141a39.88 39.88 0 0 1-28.3 11.72z" fill="#231815" p-id="1007"></path><path d="M428.82 807.3a40 40 0 0 1-35.16-59.02l153.66-284.42a40 40 0 0 1 70.38 38L464 786.32a40 40 0 0 1-35.18 20.98z" fill="#3390FF" p-id="1008"></path></svg>